<?xml version="1.0" encoding="utf-8"?>
<!-- Generator: Adobe Illustrator 23.0.0, SVG Export Plug-In . SVG Version: 6.00 Build 0)  -->
<svg version="1.1" id="Layer_1" xmlns="http://www.w3.org/2000/svg" xmlns:xlink="http://www.w3.org/1999/xlink" x="0px" y="0px"
	 viewBox="0 0 100 100" style="enable-background:new 0 0 100 100;" xml:space="preserve">
<style type="text/css">
	.st0{fill:#9799a1;}
	.st1{fill:#FFFFFF;}
</style>
<polygon class="st0" points="77.7,39.5 73.4,35.8 76.4,30.9 71.2,28.7 72.5,23.2 66.8,22.6 66.3,17 60.8,18.3 58.6,13.1 53.7,16 
	50,11.7 46.3,16 41.4,13.1 39.2,18.3 33.7,17 33.2,22.6 27.5,23.2 28.8,28.7 23.6,30.9 26.5,35.8 22.3,39.5 26.5,43.2 23.6,48.1 
	28.8,50.3 27.5,55.8 33.2,56.3 33.7,61.9 39.2,60.7 41.4,65.8 46.3,62.9 50,67.2 53.7,62.9 58.6,65.8 60.8,60.7 66.3,61.9 
	66.8,56.3 72.5,55.8 71.2,50.3 76.4,48.1 73.4,43.2 "/>
<g>
	<path class="st0" d="M40.7,67.9l-2.4-5.6L36,62.9l-5.5,23.8l8-2.9l5.9,6.1l4.9-21.3L46,64.7L40.7,67.9z M64,62.9l-2.4-0.6l-2.4,5.6
		L54,64.7l-3.3,3.7l4.9,21.3l5.9-6.1l7.9,2.9L64,62.9z"/>
</g>
<polygon class="st1" points="50,25.6 53.4,36.2 64.5,36.2 55.5,42.6 59,53.2 50,46.7 41,53.2 44.5,42.6 35.5,36.2 46.6,36.2 "/>
</svg>
